# xmcd
#
# Track frame offsets: 
#        150
#        20773
#        77693
#        100978
#        136073
#        167048
#
# Disc length: 2507 seconds
#
# Revision: 2
# Processed by: cddbd v1.5.2PL0 Copyright (c) Steve Scherf et al.
# Submitted via: ExactAudioCopy v1.0b1
#
DISCID=4309c906
DTITLE=Emerson, Lake and Palmer - Emerson, Lake and Palmer (JP-Import Mini
DTITLE=Lp - K2HD)
DYEAR=1970
DGENRE=Progressive Rock
TTITLE0=The Barbarian
TTITLE1=Take A Pebble
TTITLE2=Knife Edge
TTITLE3=The Three Fates
TTITLE4=Tank
TTITLE5=Lucky Man
EXTD=YEAR: 1970
EXTT0=
EXTT1=
EXTT2=
EXTT3=
EXTT4=
EXTT5=
PLAYORDER=
